<svg fill="#000000" xmlns="http://www.w3.org/2000/svg"  viewBox="0 0 24 24" width="24px" height="24px"><path d="M 9 4 C 8.449219 4 8 4.449219 8 5 L 8 15.878906 L 5.5625 13.4375 C 4.976563 12.851563 4.027344 12.851563 3.4375 13.4375 C 2.851563 14.023438 2.851563 14.972656 3.4375 15.5625 L 8.910156 21.03125 L 8.914063 21.027344 C 9.5 21.625 10.3125 22 11.21875 22 L 15 22 C 17.210938 22 19 20.210938 19 18 L 19 13.984375 C 19 13.015625 18.308594 12.1875 17.359375 12.015625 L 11 11 L 10 11 L 10 5 C 10 4.449219 9.550781 4 9 4 Z"/></svg>